<mxfile host="65bd71144e">
    <diagram id="HoEQkMYf4dPwDS98n3wV" name="Page-1">
        <mxGraphModel dx="832" dy="2695" grid="1" gridSize="10" guides="1" tooltips="1" connect="1" arrows="1" fold="1" page="1" pageScale="1" pageWidth="850" pageHeight="1100" math="0" shadow="0">
            <root>
                <mxCell id="0"/>
                <mxCell id="1" parent="0"/>
                <mxCell id="2" value="" style="rounded=0;whiteSpace=wrap;html=1;" vertex="1" parent="1">
                    <mxGeometry x="40.5" y="-1640" width="770" height="430" as="geometry"/>
                </mxCell>
                <mxCell id="3" value="" style="rounded=0;whiteSpace=wrap;html=1;" vertex="1" parent="1">
                    <mxGeometry x="40" y="-1640" width="770" height="70" as="geometry"/>
                </mxCell>
                <mxCell id="4" value="" style="shape=image;html=1;verticalLabelPosition=bottom;verticalAlign=top;imageAspect=1;aspect=fixed;image=https://cdn.discordapp.com/attachments/910885868733087747/1066040074367672370/Are_you_smarter_than_an_AI.png;fontSize=10;" vertex="1" parent="1">
                    <mxGeometry x="50" y="-1631" width="50" height="50" as="geometry"/>
                </mxCell>
                <mxCell id="5" value="Are you smarter &lt;br style=&quot;font-size: 12px;&quot;&gt;than an AI?" style="text;strokeColor=none;fillColor=none;html=1;fontSize=12;fontStyle=1;verticalAlign=middle;align=left;" vertex="1" parent="1">
                    <mxGeometry x="105" y="-1626" width="100" height="40" as="geometry"/>
                </mxCell>
                <mxCell id="6" value="Predict" style="text;html=1;strokeColor=none;fillColor=none;align=center;verticalAlign=middle;whiteSpace=wrap;rounded=0;" vertex="1" parent="1">
                    <mxGeometry x="593" y="-1620.5" width="60" height="30" as="geometry"/>
                </mxCell>
                <mxCell id="7" value="Quiz" style="text;html=1;strokeColor=none;fillColor=none;align=center;verticalAlign=middle;whiteSpace=wrap;rounded=0;" vertex="1" parent="1">
                    <mxGeometry x="641" y="-1619.5" width="60" height="30" as="geometry"/>
                </mxCell>
                <mxCell id="8" value="Logout" style="text;html=1;strokeColor=none;fillColor=none;align=center;verticalAlign=middle;whiteSpace=wrap;rounded=0;" vertex="1" parent="1">
                    <mxGeometry x="735" y="-1619.5" width="60" height="30" as="geometry"/>
                </mxCell>
                <mxCell id="9" value="History" style="text;html=1;strokeColor=none;fillColor=none;align=center;verticalAlign=middle;whiteSpace=wrap;rounded=0;" vertex="1" parent="1">
                    <mxGeometry x="688" y="-1619.5" width="60" height="30" as="geometry"/>
                </mxCell>
                <mxCell id="10" value="Home" style="text;html=1;strokeColor=none;fillColor=none;align=center;verticalAlign=middle;whiteSpace=wrap;rounded=0;" vertex="1" parent="1">
                    <mxGeometry x="550" y="-1620.5" width="60" height="30" as="geometry"/>
                </mxCell>
                <mxCell id="11" value="" style="shape=image;html=1;verticalLabelPosition=bottom;verticalAlign=top;imageAspect=1;aspect=fixed;image=img/clipart/Gear_128x128.png" vertex="1" parent="1">
                    <mxGeometry x="55.21" y="-1560" width="51.15" height="60" as="geometry"/>
                </mxCell>
                <mxCell id="12" value="ARE YOU &lt;br style=&quot;font-size: 32px;&quot;&gt;SMARTER THAN&lt;br style=&quot;font-size: 32px;&quot;&gt;AN AI?" style="text;strokeColor=none;fillColor=none;html=1;fontSize=32;fontStyle=1;verticalAlign=middle;align=center;" vertex="1" parent="1">
                    <mxGeometry x="375.5" y="-1439" width="100" height="40" as="geometry"/>
                </mxCell>
                <mxCell id="14" value="Predict" style="rounded=1;html=1;shadow=0;dashed=0;whiteSpace=wrap;fontSize=10;fillColor=#666666;align=center;strokeColor=#4D4D4D;fontColor=#ffffff;" vertex="1" parent="1">
                    <mxGeometry x="310" y="-1344" width="105.5" height="16.88" as="geometry"/>
                </mxCell>
                <mxCell id="15" style="edgeStyle=none;html=1;exitX=1;exitY=0.75;exitDx=0;exitDy=0;fontSize=12;" edge="1" parent="1" source="12" target="12">
                    <mxGeometry relative="1" as="geometry"/>
                </mxCell>
                <mxCell id="16" value="Quiz" style="rounded=1;html=1;shadow=0;dashed=0;whiteSpace=wrap;fontSize=10;fillColor=#666666;align=center;strokeColor=#4D4D4D;fontColor=#ffffff;" vertex="1" parent="1">
                    <mxGeometry x="435" y="-1344" width="105.5" height="16.88" as="geometry"/>
                </mxCell>
                <mxCell id="17" value="" style="shape=image;html=1;verticalLabelPosition=bottom;verticalAlign=top;imageAspect=1;aspect=fixed;image=img/clipart/Gear_128x128.png" vertex="1" parent="1">
                    <mxGeometry x="134.63000000000002" y="-1560" width="51.15" height="60" as="geometry"/>
                </mxCell>
                <mxCell id="18" value="" style="shape=image;html=1;verticalLabelPosition=bottom;verticalAlign=top;imageAspect=1;aspect=fixed;image=img/clipart/Gear_128x128.png" vertex="1" parent="1">
                    <mxGeometry x="210.21" y="-1560" width="51.15" height="60" as="geometry"/>
                </mxCell>
                <mxCell id="19" value="" style="shape=image;html=1;verticalLabelPosition=bottom;verticalAlign=top;imageAspect=1;aspect=fixed;image=img/clipart/Gear_128x128.png" vertex="1" parent="1">
                    <mxGeometry x="285.21" y="-1560" width="51.15" height="60" as="geometry"/>
                </mxCell>
                <mxCell id="20" value="" style="shape=image;html=1;verticalLabelPosition=bottom;verticalAlign=top;imageAspect=1;aspect=fixed;image=img/clipart/Gear_128x128.png" vertex="1" parent="1">
                    <mxGeometry x="364.63" y="-1560" width="51.15" height="60" as="geometry"/>
                </mxCell>
                <mxCell id="21" value="" style="shape=image;html=1;verticalLabelPosition=bottom;verticalAlign=top;imageAspect=1;aspect=fixed;image=img/clipart/Gear_128x128.png" vertex="1" parent="1">
                    <mxGeometry x="440.21" y="-1560" width="51.15" height="60" as="geometry"/>
                </mxCell>
                <mxCell id="25" value="" style="shape=image;html=1;verticalLabelPosition=bottom;verticalAlign=top;imageAspect=1;aspect=fixed;image=img/clipart/Gear_128x128.png" vertex="1" parent="1">
                    <mxGeometry x="515.21" y="-1560" width="51.15" height="60" as="geometry"/>
                </mxCell>
                <mxCell id="26" value="" style="shape=image;html=1;verticalLabelPosition=bottom;verticalAlign=top;imageAspect=1;aspect=fixed;image=img/clipart/Gear_128x128.png" vertex="1" parent="1">
                    <mxGeometry x="594.6300000000001" y="-1560" width="51.15" height="60" as="geometry"/>
                </mxCell>
                <mxCell id="27" value="" style="shape=image;html=1;verticalLabelPosition=bottom;verticalAlign=top;imageAspect=1;aspect=fixed;image=img/clipart/Gear_128x128.png" vertex="1" parent="1">
                    <mxGeometry x="670.21" y="-1560" width="51.15" height="60" as="geometry"/>
                </mxCell>
                <mxCell id="28" value="" style="shape=image;html=1;verticalLabelPosition=bottom;verticalAlign=top;imageAspect=1;aspect=fixed;image=img/clipart/Gear_128x128.png" vertex="1" parent="1">
                    <mxGeometry x="744.63" y="-1560" width="51.15" height="60" as="geometry"/>
                </mxCell>
                <mxCell id="29" value="" style="shape=image;html=1;verticalLabelPosition=bottom;verticalAlign=top;imageAspect=1;aspect=fixed;image=img/clipart/Gear_128x128.png" vertex="1" parent="1">
                    <mxGeometry x="55.00000000000001" y="-1290" width="51.15" height="60" as="geometry"/>
                </mxCell>
                <mxCell id="30" value="" style="shape=image;html=1;verticalLabelPosition=bottom;verticalAlign=top;imageAspect=1;aspect=fixed;image=img/clipart/Gear_128x128.png" vertex="1" parent="1">
                    <mxGeometry x="134.42000000000002" y="-1290" width="51.15" height="60" as="geometry"/>
                </mxCell>
                <mxCell id="31" value="" style="shape=image;html=1;verticalLabelPosition=bottom;verticalAlign=top;imageAspect=1;aspect=fixed;image=img/clipart/Gear_128x128.png" vertex="1" parent="1">
                    <mxGeometry x="210" y="-1290" width="51.15" height="60" as="geometry"/>
                </mxCell>
                <mxCell id="32" value="" style="shape=image;html=1;verticalLabelPosition=bottom;verticalAlign=top;imageAspect=1;aspect=fixed;image=img/clipart/Gear_128x128.png" vertex="1" parent="1">
                    <mxGeometry x="285" y="-1290" width="51.15" height="60" as="geometry"/>
                </mxCell>
                <mxCell id="33" value="" style="shape=image;html=1;verticalLabelPosition=bottom;verticalAlign=top;imageAspect=1;aspect=fixed;image=img/clipart/Gear_128x128.png" vertex="1" parent="1">
                    <mxGeometry x="364.42" y="-1290" width="51.15" height="60" as="geometry"/>
                </mxCell>
                <mxCell id="34" value="" style="shape=image;html=1;verticalLabelPosition=bottom;verticalAlign=top;imageAspect=1;aspect=fixed;image=img/clipart/Gear_128x128.png" vertex="1" parent="1">
                    <mxGeometry x="440" y="-1290" width="51.15" height="60" as="geometry"/>
                </mxCell>
                <mxCell id="35" value="" style="shape=image;html=1;verticalLabelPosition=bottom;verticalAlign=top;imageAspect=1;aspect=fixed;image=img/clipart/Gear_128x128.png" vertex="1" parent="1">
                    <mxGeometry x="515" y="-1290" width="51.15" height="60" as="geometry"/>
                </mxCell>
                <mxCell id="36" value="" style="shape=image;html=1;verticalLabelPosition=bottom;verticalAlign=top;imageAspect=1;aspect=fixed;image=img/clipart/Gear_128x128.png" vertex="1" parent="1">
                    <mxGeometry x="594.4200000000001" y="-1290" width="51.15" height="60" as="geometry"/>
                </mxCell>
                <mxCell id="37" value="" style="shape=image;html=1;verticalLabelPosition=bottom;verticalAlign=top;imageAspect=1;aspect=fixed;image=img/clipart/Gear_128x128.png" vertex="1" parent="1">
                    <mxGeometry x="670" y="-1290" width="51.15" height="60" as="geometry"/>
                </mxCell>
                <mxCell id="38" value="" style="shape=image;html=1;verticalLabelPosition=bottom;verticalAlign=top;imageAspect=1;aspect=fixed;image=img/clipart/Gear_128x128.png" vertex="1" parent="1">
                    <mxGeometry x="744.42" y="-1290" width="51.15" height="60" as="geometry"/>
                </mxCell>
            </root>
        </mxGraphModel>
    </diagram>
</mxfile>
